<svg width="1005" height="446" xmlns="http://www.w3.org/2000/svg">
 <!-- Created with Method Draw - http://github.com/duopixel/Method-Draw/ -->

 <g>
  <title>background</title>
  <rect fill="none" id="canvas_background" height="448" width="1007" y="-1" x="-1"/>
  <g display="none" id="canvasGrid">
   <rect fill="url(#gridpattern)" stroke-width="0" y="0" x="0" height="100%" width="100%" id="svg_1"/>
  </g>
 </g>
 <g>
  <title>Layer 1</title>
  <path stroke="#000000" id="svg_2" d="m475,441c217.55827,-621.80952 191.50437,-520.76191 260.14285,-2.57143" fill-opacity="0" stroke-width="5" fill="#000000"/>
  <path id="svg_9" d="m42.18481,429.95328c585.01804,-57.00135 427.92101,-578.85632 343.50797,-382.00756c-84.41304,196.84876 449.2996,109.12048 304.79404,319.53891c-144.50556,210.41843 -495.86004,-140.13839 -541.85939,-31.48832c-27.66288,74.74442 127.12866,60.34137 809.18997,-19.48761" stroke-width="5" stroke="#000000" fill="none"/>
  <path id="svg_3" d="m9.18262,175.66445c111,-108 76,205.33333 79,211.33333c3,6 -1.0944,-198.51041 83.5,-183.66666c84.5944,14.84375 3.61457,329.45833 36.11653,114.86458c32.50196,-214.59375 117.30796,-229.07292 155.2741,-186.78125c37.96614,42.29167 -3.95997,149.64064 -49.36133,220.34375c-45.40136,70.70311 59.72191,84.62394 82.61434,37.8553c22.89243,-46.76864 14.73009,-66.36882 17.90802,-84.2191c3.17793,-17.85028 -15.30392,88.04899 28.94932,86.27877c22.12662,-0.88511 30.86503,-43.32478 31.89013,-81.19942c1.0251,-37.87464 -19.90702,93.61877 34.73936,80.5976c54.64638,-13.02116 23.16133,-107.54827 13.26181,-90.32128c-9.89952,17.22698 42.46327,3.38538 78.83581,-0.39959c18.18628,-1.89248 -39.91664,94.5104 9.14917,91.40408c49.06581,-3.10632 34.30001,-136.72204 33.49497,-75.65134c-0.80504,61.07071 33.0173,102.82737 73.58981,58.4648c40.57251,-44.36257 66.89535,-359.84174 15.09692,-196.24568c-51.79843,163.59607 16.27816,213.26911 43.35572,214.21427c27.07757,0.94515 37.15589,-17.83699 42.35978,-53.15224c5.20389,-35.31525 -22.46677,65.16964 50.11276,50.98464c9.07244,-1.77312 33.83137,-15.07285 27.46209,-67.03276c-6.36928,-51.95991 -84.49579,-37.19221 -79.02195,-5.35955c5.47384,31.83266 143.67777,-11.0517 154.30515,-19.75535" stroke-opacity="null" stroke-width="5" stroke="#000" fill="none"/>
  <ellipse stroke="#000" ry="4" rx="4" id="svg_4" cy="202.705518" cx="644.498171" stroke-opacity="null" stroke-width="1.5" fill="#000000"/>
 </g>
</svg>